<svg width="20" height="20" viewBox="0 0 20 20" fill="none" xmlns="http://www.w3.org/2000/svg">
<circle cx="10" cy="10" r="10" fill="#FFB800"/>
<path d="M4.2059 15H15.7871C16.2684 15 16.5684 14.4813 16.3309 14.0625L10.5371 4.06251C10.2934 3.64376 9.6934 3.64376 9.4559 4.06251L3.66215 14.0625C3.42465 14.4813 3.72465 15 4.2059 15ZM10.6246 13.125H9.37465V11.875H10.6246V13.125ZM9.99965 10.625C9.6559 10.625 9.37465 10.3438 9.37465 10V8.75001C9.37465 8.40626 9.6559 8.12501 9.99965 8.12501C10.3434 8.12501 10.6246 8.40626 10.6246 8.75001V10C10.6246 10.3438 10.3434 10.625 9.99965 10.625Z" fill="white"/>
</svg>
