<svg width="20" height="20" viewBox="0 0 20 20" fill="none" xmlns="http://www.w3.org/2000/svg">
<circle cx="10" cy="10" r="10" fill="#FF4141"/>
<path d="M10 3.75C6.55 3.75 3.75 6.55 3.75 10C3.75 13.45 6.55 16.25 10 16.25C13.45 16.25 16.25 13.45 16.25 10C16.25 6.55 13.45 3.75 10 3.75ZM5 10C5 7.2375 7.2375 5 10 5C11.1562 5 12.2188 5.39375 13.0625 6.05625L6.05625 13.0625C5.39375 12.2188 5 11.1562 5 10ZM10 15C8.84375 15 7.78125 14.6062 6.9375 13.9437L13.9437 6.9375C14.6062 7.78125 15 8.84375 15 10C15 12.7625 12.7625 15 10 15Z" fill="white"/>
</svg>
