<svg width="16" height="16" viewBox="0 0 16 16" fill="none" xmlns="http://www.w3.org/2000/svg">
<path d="M2.2059 13H13.7871C14.2684 13 14.5684 12.4813 14.3309 12.0625L8.53715 2.06251C8.2934 1.64376 7.6934 1.64376 7.4559 2.06251L1.66215 12.0625C1.42465 12.4813 1.72465 13 2.2059 13ZM8.62465 11.125H7.37465V9.87501H8.62465V11.125ZM7.99965 8.62501C7.6559 8.62501 7.37465 8.34376 7.37465 8.00001V6.75001C7.37465 6.40626 7.6559 6.12501 7.99965 6.12501C8.3434 6.12501 8.62465 6.40626 8.62465 6.75001V8.00001C8.62465 8.34376 8.3434 8.62501 7.99965 8.62501Z" fill="white"/>
</svg>
